<?xml version="1.0" encoding="utf-8"?>
<!-- Svg Vector Icons : http://www.onlinewebfonts.com/icon -->
<!DOCTYPE svg PUBLIC "-//W3C//DTD SVG 1.1//EN" "http://www.w3.org/Graphics/SVG/1.1/DTD/svg11.dtd">
<svg version="1.1" xmlns="http://www.w3.org/2000/svg" xmlns:xlink="http://www.w3.org/1999/xlink" x="0px" y="0px" viewBox="0 0 1000 1000" enable-background="new 0 0 1000 1000" xml:space="preserve">
<metadata> Svg Vector Icons : http://www.onlinewebfonts.com/icon </metadata>
<g><path d="M264.3,185.9h470.4v396H789V147.7c0-8.9-7.2-16.1-16.1-16.1H226.1c-8.9,0-16.1,7.2-16.1,16.1v434.2h54.3V185.9z"/><path d="M378.9,370.8c0,13.3,10.8,24.1,24.1,24.1c13.3,0,24.1-10.8,24.1-24.1c0-13.3-10.8-24.1-24.1-24.1C389.7,346.7,378.9,357.5,378.9,370.8z"/><path d="M571.9,370.8c0,13.3,10.8,24.1,24.1,24.1c13.3,0,24.1-10.8,24.1-24.1c0-13.3-10.8-24.1-24.1-24.1C582.7,346.7,571.9,357.5,571.9,370.8z"/><path d="M597,494c0,0-19.1-50.8-97-50.8S403,494,403,494s43.7-17.6,97-17.6C553.3,476.4,597,494,597,494z"/><path d="M973.9,612.1H26.1c-8.9,0-16.1,7.2-16.1,16.1v224.1c0,8.9,7.2,16.1,16.1,16.1h947.8c8.9,0,16.1-7.2,16.1-16.1V628.2C990,619.3,982.8,612.1,973.9,612.1z M601,764.9H400v-48.2h201V764.9z"/><path d="M179.9,407L13,581.9h166.9V407z"/><path d="M819.1,407v174.9H986L819.1,407z"/></g>
</svg>